<?xml version="1.0" standalone="no"?>
<!DOCTYPE svg PUBLIC "-//W3C//DTD SVG 20010904//EN"
 "http://www.w3.org/TR/2001/REC-SVG-20010904/DTD/svg10.dtd">
<svg version="1.0" xmlns="http://www.w3.org/2000/svg"
 width="2200.000000pt" height="1341.000000pt" viewBox="0 0 2200.000000 1341.000000"
 preserveAspectRatio="xMidYMid meet">

<g transform="translate(0.000000,1341.000000) scale(0.100000,-0.100000)"
fill="#000000" stroke="none">
<path d="M18540 13085 c-536 -178 -4887 -1625 -9668 -3215 -4782 -1589 -8717
-2902 -8745 -2917 -93 -51 -132 -130 -124 -252 4 -67 128 -445 1087 -3325
l1082 -3249 51 -52 c62 -62 114 -79 214 -73 57 4 1566 503 9727 3216 5313
1767 9678 3223 9701 3237 50 29 102 86 121 131 8 19 14 63 14 100 0 61 -83
314 -1076 3302 -592 1781 -1088 3259 -1102 3286 -51 95 -125 136 -243 136 -57
0 -168 -35 -1039 -325z m771 -407 c46 -13 109 -65 138 -111 11 -18 426 -1252
922 -2742 846 -2538 903 -2714 903 -2780 1 -96 -29 -156 -104 -207 -47 -32
-1354 -469 -9190 -3075 l-9135 -3038 -82 0 c-74 0 -85 3 -124 30 -97 68 -35
-104 -1011 2828 -852 2559 -903 2716 -903 2782 0 96 31 156 105 207 47 32
1343 465 9190 3073 5024 1670 9140 3038 9145 3040 23 8 110 4 146 -7z"/>
<path d="M19010 12338 c-47 -6 -17573 -5825 -17750 -5893 -129 -50 -190 -132
-190 -258 0 -65 49 -217 811 -2506 446 -1340 820 -2452 829 -2471 25 -48 87
-106 134 -125 82 -35 141 -24 459 81 1679 555 17440 5799 17471 5812 62 28
102 67 132 127 53 110 108 -71 -794 2642 -681 2046 -818 2449 -845 2485 -67
88 -148 121 -257 106z m-80 -369 c59 -13 113 -50 150 -101 24 -32 194 -533
757 -2227 785 -2362 748 -2241 708 -2339 -25 -62 -101 -125 -187 -156 -40 -14
-3911 -1302 -8603 -2862 -7930 -2637 -8536 -2837 -8610 -2841 -73 -4 -85 -2
-135 24 -33 17 -68 45 -86 70 -26 34 -167 446 -760 2225 -673 2016 -728 2188
-728 2249 0 85 39 159 107 205 33 23 209 86 634 227 1519 506 16423 5460
16533 5496 135 44 151 46 220 30z"/>
<path d="M14533 9969 l-1111 -369 108 -328 c653 -1968 1142 -3432 1146 -3432
15 0 2271 754 2279 761 6 6 -27 121 -94 322 -57 172 -105 314 -107 316 -1 1
-375 -121 -831 -273 -455 -152 -833 -276 -838 -276 -9 0 -349 1000 -342 1006
1 0 337 113 747 249 410 136 747 250 750 252 3 3 -164 520 -201 620 -8 21 -26
16 -759 -229 -413 -137 -753 -248 -754 -247 -2 2 -64 187 -139 411 l-135 407
806 267 c444 146 809 268 811 269 5 6 -210 645 -217 645 -4 0 -507 -167 -1119
-371z"/>
<path d="M12632 9336 c-221 -73 -397 -138 -402 -146 -4 -8 -152 -463 -329
-1010 -176 -547 -324 -1003 -328 -1013 -6 -12 -96 248 -282 805 -150 453 -275
824 -276 825 -1 3 -608 -198 -614 -203 -5 -4 1240 -3737 1250 -3749 11 -11
609 184 609 199 0 5 -83 262 -185 571 l-185 563 133 374 c74 205 136 379 139
387 2 9 274 -269 708 -726 l703 -740 396 132 c218 72 394 136 391 141 -3 5
-440 431 -972 947 -533 516 -968 943 -968 949 0 10 439 1267 601 1721 32 91
35 107 21 106 -9 0 -194 -60 -410 -133z"/>
<path d="M8540 7976 l-305 -103 -3 -59 c-3 -52 69 -4085 73 -4091 2 -4 639
209 646 216 4 3 -1 213 -11 466 -10 253 -15 463 -12 466 4 4 272 94 595 202
l588 196 30 -42 c17 -23 139 -194 271 -380 133 -185 247 -337 253 -337 11 0
657 209 663 215 2 2 -548 756 -1221 1676 -836 1145 -1230 1675 -1243 1676 -10
1 -156 -44 -324 -101z m735 -1521 l426 -610 -397 -132 c-219 -73 -400 -131
-402 -128 -4 3 -54 1219 -62 1474 0 8 2 12 4 10 3 -3 197 -279 431 -614z"/>
<path d="M6051 7150 c-557 -187 -1015 -341 -1017 -343 -5 -5 1235 -3739 1245
-3749 10 -11 611 191 611 205 0 7 -117 363 -260 792 -143 429 -260 783 -260
787 0 4 282 100 626 213 412 136 624 210 621 218 -2 7 -50 152 -107 322 -56
171 -104 311 -105 312 0 2 -283 -91 -628 -206 l-626 -209 -142 426 c-78 235
-144 432 -146 439 -3 8 240 93 714 249 395 131 721 240 725 244 4 3 -40 149
-98 323 -83 250 -109 317 -122 316 -10 0 -473 -153 -1031 -339z"/>
</g>
</svg>
